<?xml version="1.0" encoding="UTF-8"?>
<svg version="1.1" viewBox="0 0 256 256" xml:space="preserve" xmlns="http://www.w3.org/2000/svg">
  <defs>
    <filter id="filter0_d" x="-21.5" y="40.5" width="299" height="236" color-interpolation-filters="sRGB"
      filterUnits="userSpaceOnUse">
      <feFlood flood-opacity="0" result="BackgroundImageFix" />
      <feColorMatrix in="SourceAlpha" values="0 0 0 0 0 0 0 0 0 0 0 0 0 0 0 0 0 0 127 0" />
      <feOffset />
      <feGaussianBlur stdDeviation="10.6667" />
      <feColorMatrix values="0 0 0 0 0 0 0 0 0 0 0 0 0 0 0 0 0 0 0.25 0" />
      <feBlend in2="BackgroundImageFix" mode="overlay" result="effect1_dropShadow" />
      <feBlend in="SourceGraphic" in2="effect1_dropShadow" result="shape" />
    </filter>
    <filter id="filter1_d" x="155" y="-20.7" width="123" height="297" color-interpolation-filters="sRGB"
      filterUnits="userSpaceOnUse">
      <feFlood flood-opacity="0" result="BackgroundImageFix" />
      <feColorMatrix in="SourceAlpha" values="0 0 0 0 0 0 0 0 0 0 0 0 0 0 0 0 0 0 127 0" />
      <feOffset />
      <feGaussianBlur stdDeviation="10.6667" />
      <feColorMatrix values="0 0 0 0 0 0 0 0 0 0 0 0 0 0 0 0 0 0 0.25 0" />
      <feBlend in2="BackgroundImageFix" mode="overlay" result="effect1_dropShadow" />
      <feBlend in="SourceGraphic" in2="effect1_dropShadow" result="shape" />
    </filter>
    <linearGradient id="paint0_linear" x1="128" x2="128" y1=".66" y2="255"
      gradientTransform="matrix(1 0 0 .995 -128 -127)" gradientUnits="userSpaceOnUse">
      <stop stop-color="#fff" offset="0" />
      <stop stop-color="#fff" stop-opacity="0" offset="1" />
    </linearGradient>
    <filter id="filter0_d-5" x="-21.5" y="40.5" width="299" height="236" color-interpolation-filters="sRGB"
      filterUnits="userSpaceOnUse">
      <feFlood flood-opacity="0" result="BackgroundImageFix" />
      <feColorMatrix in="SourceAlpha" values="0 0 0 0 0 0 0 0 0 0 0 0 0 0 0 0 0 0 127 0" />
      <feOffset />
      <feGaussianBlur stdDeviation="10.6667" />
      <feColorMatrix values="0 0 0 0 0 0 0 0 0 0 0 0 0 0 0 0 0 0 0.25 0" />
      <feBlend in2="BackgroundImageFix" mode="overlay" result="effect1_dropShadow" />
      <feBlend in="SourceGraphic" in2="effect1_dropShadow" result="shape" />
    </filter>
    <filter id="filter1_d-7" x="155" y="-20.7" width="123" height="297" color-interpolation-filters="sRGB"
      filterUnits="userSpaceOnUse">
      <feFlood flood-opacity="0" result="BackgroundImageFix" />
      <feColorMatrix in="SourceAlpha" values="0 0 0 0 0 0 0 0 0 0 0 0 0 0 0 0 0 0 127 0" />
      <feOffset />
      <feGaussianBlur stdDeviation="10.6667" />
      <feColorMatrix values="0 0 0 0 0 0 0 0 0 0 0 0 0 0 0 0 0 0 0.25 0" />
      <feBlend in2="BackgroundImageFix" mode="overlay" result="effect1_dropShadow" />
      <feBlend in="SourceGraphic" in2="effect1_dropShadow" result="shape" />
    </filter>
    <filter id="filter0_d-5-2-5" x="-21.5" y="40.5" width="299" height="236" color-interpolation-filters="sRGB"
      filterUnits="userSpaceOnUse">
      <feFlood flood-opacity="0" result="BackgroundImageFix" />
      <feColorMatrix in="SourceAlpha" values="0 0 0 0 0 0 0 0 0 0 0 0 0 0 0 0 0 0 127 0" />
      <feOffset />
      <feGaussianBlur stdDeviation="10.6667" />
      <feColorMatrix values="0 0 0 0 0 0 0 0 0 0 0 0 0 0 0 0 0 0 0.25 0" />
      <feBlend in2="BackgroundImageFix" mode="overlay" result="effect1_dropShadow" />
      <feBlend in="SourceGraphic" in2="effect1_dropShadow" result="shape" />
    </filter>
  </defs>
  <g transform="matrix(.5 0 0 .5 -.000747 -.000747)" style="stroke-width:2">
    <path
      d="m487 263c-2.15-4.21-2.15-9.05 0-13.3l19.9-39.1c11.1-21.8 2.3-47.7-20-59l-40-20.4c-4.32-2.2-7.28-6.11-8.12-10.7l-7.83-42.8c-4.36-23.8-27.3-39.9-52.3-36.5l-44.9 6.09c-4.84 0.656-9.63-0.838-13.1-4.1l-32.6-30.2c-18.1-16.8-46.5-16.8-64.7 0l-32.6 30.2c-3.51 3.26-8.3 4.75-13.1 4.1l-44.9-6.09c-25-3.39-48 12.6-52.3 36.5l-7.83 42.8c-0.845 4.62-3.81 8.53-8.12 10.7l-40 20.4c-22.3 11.3-31.1 37.3-20 59l19.9 39.1c2.15 4.21 2.15 9.05 0 13.3l-19.9 39.1c-11.1 21.8-2.3 47.7 20 59l40 20.4c4.32 2.2 7.28 6.11 8.12 10.7l7.83 42.8c3.97 21.7 23.4 36.9 45.7 36.9 2.2 0 4.42-0.148 6.66-0.452l44.9-6.09c4.84-0.659 9.63 0.838 13.1 4.1l32.6 30.2c9.07 8.42 20.7 12.6 32.3 12.6 11.6-1e-3 23.3-4.21 32.3-12.6l32.6-30.2c3.51-3.26 8.3-4.75 13.1-4.1l44.9 6.09c25 3.39 48-12.6 52.3-36.5l7.83-42.8c0.845-4.62 3.81-8.53 8.12-10.7l40-20.4c22.3-11.3 31.1-37.3 20-59z"
      style="stroke-width:2" />
    <path
      d="m256 29.6c-3.94 0-7.87 1.42-10.9 4.27l-32.6 30.2c-10.4 9.64-24.5 14.1-38.9 12.1l-44.9-6.09c-8.46-1.15-16.2 4.27-17.7 12.3l-7.83 42.8c-2.5 13.7-11.2 25.2-24 31.7l-40 20.4c-7.54 3.84-10.5 12.6-6.76 20l19.9 39.1c6.34 12.5 6.34 26.7 0 39.2l-19.9 39.1c-3.75 7.36-0.779 16.1 6.76 20l40 20.4c12.8 6.5 21.5 18.1 24 31.7l7.83 42.8c1.48 8.07 9.26 13.5 17.7 12.3l44.9-6.09c2.22-0.301 4.43-0.449 6.62-0.449 12 0 23.5 4.42 32.2 12.6l32.6 30.2c3.07 2.85 7 4.27 10.9 4.27z"
      style="fill:#0078d7;stroke-width:2" />
    <path
      d="m256 29.6v453c3.94 4.7e-4 7.87-1.42 10.9-4.27l32.6-30.2c10.4-9.64 24.5-14.1 38.9-12.1l44.9 6.09c8.46 1.14 16.2-4.27 17.7-12.3l7.83-42.8c2.5-13.7 11.2-25.2 24-31.7l40-20.4c7.54-3.84 10.5-12.6 6.76-20l-19.9-39.1c-6.34-12.5-6.34-26.7 0-39.2l19.9-39.1c3.75-7.36 0.779-16.1-6.76-20l-40-20.4c-12.8-6.5-21.5-18.1-24-31.7l-7.83-42.8c-1.47-8.07-9.25-13.5-17.7-12.3l-44.9 6.09c-14.3 1.94-28.5-2.47-38.9-12.1l-32.6-30.2c-3.07-2.85-7-4.27-10.9-4.27z"
      style="fill:#fff;stroke-width:2" />
    <path
      d="m375 155-52.7-25.5c-6.1-2.95-13.4-1.71-18.2 3.11l-173 158c-4.64 4.26-4.64 11.6 0.0115 15.9l14.1 12.9c3.8 3.47 9.53 3.73 13.6 0.609l208-159c6.98-5.32 17-0.318 17 8.48v-0.616c0-6.18-3.52-11.8-9.06-14.5z"
      fill="#0065a9" style="fill:#0078d7;stroke-width:1.99" />
    <path transform="matrix(1 0 0 1.01 128 127)"
      d="m247 228-52.7 25.4c-6.1 2.94-13.4 1.7-18.2-3.09l-173-157c-4.64-4.23-4.64-11.5 0.0115-15.8l14.1-12.8c3.8-3.46 9.53-3.71 13.6-0.605l208 158c6.98 5.29 17 0.317 17-8.44v0.613c0 6.15-3.52 11.7-9.06 14.4z"
      fill="#007acc" style="fill:#0078d7;filter:url(#filter0_d-5);stroke-width:1.98" />
    <path
      d="m375 155-52.7-25.5c-6.1-2.95-13.4-1.71-18.2 3.11l-173 158c-4.64 4.26-4.64 11.6 0.0115 15.9l14.1 12.9c3.8 3.47 9.53 3.73 13.6 0.609l208-159c6.98-5.32 17-0.318 17 8.48v-0.616c0-6.18-3.52-11.8-9.06-14.5z"
      fill="#0065a9" style="fill:#fff;stroke-width:1.99" />
    <path transform="matrix(1 0 0 1.01 128 127)"
      d="m247 228-52.7 25.4c-6.1 2.94-13.4 1.7-18.2-3.09l-173-157c-4.64-4.23-4.64-11.5 0.0115-15.8l14.1-12.8c3.8-3.46 9.53-3.71 13.6-0.605l208 158c6.98 5.29 17 0.317 17-8.44v0.613c0 6.15-3.52 11.7-9.06 14.4z"
      fill="#007acc" style="fill:#fff;filter:url(#filter0_d);stroke-width:1.98" />
    <path transform="matrix(1 0 0 1.01 128 127)"
      d="m194 254c-6.11 2.94-13.4 1.7-18.2-3.1 5.9 5.9 16 1.72 16-6.63v-232c0-8.35-10.1-12.5-16-6.63 4.79-4.79 12.1-6.03 18.2-3.1l52.7 25.4c5.54 2.66 9.07 8.27 9.07 14.4v172c0 6.15-3.52 11.8-9.07 14.4z"
      fill="#1f9cf0" style="fill:#fff;filter:url(#filter1_d);stroke-width:1.98" />
    <path
      d="m309 383c4.03 1.58 8.63 1.48 12.7-0.491l52.7-25.5c5.54-2.68 9.06-8.31 9.06-14.5v-173c0-6.18-3.52-11.8-9.06-14.5l-52.7-25.5c-5.34-2.58-11.6-1.95-16.3 1.47-0.669 0.489-1.31 1.04-1.91 1.64l-101 92.5-43.9-33.5c-4.09-3.12-9.81-2.87-13.6 0.608l-14.1 12.9c-4.65 4.25-4.65 11.6-0.0115 15.9l38.1 35-38.1 35c-4.64 4.26-4.64 11.6 0.0115 15.9l14.1 12.9c3.8 3.47 9.52 3.73 13.6 0.609l43.9-33.5 101 92.5c1.6 1.61 3.47 2.81 5.49 3.6zm10.5-185-76.6 58.4 76.6 58.4z"
      clip-rule="evenodd" fill="url(#paint0_linear)" fill-rule="evenodd"
      style="fill:#fff;mix-blend-mode:overlay;opacity:.25;stroke-width:1.99" />
    <g transform="translate(128 128)" opacity=".25" style="fill:#fff;mix-blend-mode:overlay;stroke-width:4">
      <path
        d="m181 254c4.03 1.57 8.63 1.47 12.7-0.488l52.7-25.4c5.54-2.66 9.06-8.27 9.06-14.4v-172c0-6.15-3.52-11.8-9.06-14.4l-52.7-25.4c-5.34-2.57-11.6-1.94-16.3 1.47-0.669 0.487-1.31 1.03-1.91 1.63l-101 92.1-43.9-33.4c-4.09-3.11-9.81-2.85-13.6 0.605l-14.1 12.8c-4.65 4.23-4.65 11.5-0.0115 15.8l38.1 34.8-38.1 34.8c-4.64 4.24-4.64 11.5 0.0115 15.8l14.1 12.8c3.8 3.46 9.52 3.71 13.6 0.606l43.9-33.4 101 92.1c1.6 1.6 3.47 2.8 5.49 3.58zm10.5-184-76.6 58.1 76.6 58.1z"
        clip-rule="evenodd" fill="url(#paint0_linear)" fill-rule="evenodd" style="fill:#fff;stroke-width:8" />
    </g>
    <path
      d="m375 155-52.7-25.5c-6.1-2.95-13.4-1.71-18.2 3.11l-48.2 44-0.0389 69.8 111-84.8c6.98-5.32 17-0.318 17 8.48v-0.616c0-6.18-3.52-11.8-9.06-14.5z"
      fill="#0065a9" style="fill:#0078d7;stroke-width:1.99" />
    <path transform="matrix(1 0 0 1.01 128 127)"
      d="m247 228-52.7 25.4c-6.1 2.94-13.4 1.7-18.2-3.09l-48-43.8 5e-3 -69.3 111 84.2c6.98 5.29 17 0.317 17-8.44v0.613c0 6.15-3.52 11.7-9.06 14.4z"
      fill="#007acc" style="fill:#0078d7;filter:url(#filter0_d-5-2-5);stroke-width:1.98" />
    <path transform="matrix(1 0 0 1.01 128 127)"
      d="m194 254c-6.11 2.94-13.4 1.7-18.2-3.1 5.9 5.9 16 1.72 16-6.63v-232c0-8.35-10.1-12.5-16-6.63 4.79-4.79 12.1-6.03 18.2-3.1l52.7 25.4c5.54 2.66 9.07 8.27 9.07 14.4v172c0 6.15-3.52 11.8-9.07 14.4z"
      fill="#1f9cf0" style="fill:#0078d7;filter:url(#filter1_d-7);stroke-width:1.98" />
    <path
      d="m309 383c4.03 1.58 8.63 1.48 12.7-0.491l52.7-25.5c5.54-2.68 9.06-8.31 9.06-14.5v-173c0-6.18-3.52-11.8-9.06-14.5l-52.7-25.5c-5.34-2.58-11.6-1.95-16.3 1.47-0.669 0.489-1.31 1.04-1.91 1.64l-101 92.5-43.9-33.5c-4.09-3.12-9.81-2.87-13.6 0.608l-14.1 12.9c-4.65 4.25-4.65 11.6-0.0115 15.9l38.1 35-38.1 35c-4.64 4.26-4.64 11.6 0.0115 15.9l14.1 12.9c3.8 3.47 9.52 3.73 13.6 0.609l43.9-33.5 101 92.5c1.6 1.61 3.47 2.81 5.49 3.6zm10.5-185-76.6 58.4 76.6 58.4z"
      clip-rule="evenodd" fill="url(#paint0_linear)" fill-rule="evenodd"
      style="fill:#0078d7;mix-blend-mode:overlay;opacity:.25;stroke-width:1.99" />
  </g>
</svg>
